packet|codec_type=audio|stream_index=0|pts=0|pts_time=0.000000|dts=0|dts_time=0.000000|duration=22528|duration_time=0.510839|size=4092|pos=56|flags=K_
frame|media_type=audio|stream_index=0|key_frame=1|pts=N/A|pts_time=N/A|pkt_dts=N/A|pkt_dts_time=N/A|best_effort_timestamp=N/A|best_effort_timestamp_time=N/A|pkt_duration=22528|pkt_duration_time=0.510839|pkt_pos=56|pkt_size=3348|sample_fmt=fltp|nb_samples=2048|channels=2|channel_layout=unknown
frame|media_type=audio|stream_index=0|key_frame=1|pts=N/A|pts_time=N/A|pkt_dts=N/A|pkt_dts_time=N/A|best_effort_timestamp=N/A|best_effort_timestamp_time=N/A|pkt_duration=22528|pkt_duration_time=0.510839|pkt_pos=56|pkt_size=2976|sample_fmt=fltp|nb_samples=2048|channels=2|channel_layout=unknown
frame|media_type=audio|stream_index=0|key_frame=1|pts=N/A|pts_time=N/A|pkt_dts=N/A|pkt_dts_time=N/A|best_effort_timestamp=N/A|best_effort_timestamp_time=N/A|pkt_duration=22528|pkt_duration_time=0.510839|pkt_pos=56|pkt_size=2604|sample_fmt=fltp|nb_samples=2048|channels=2|channel_layout=unknown
frame|media_type=audio|stream_index=0|key_frame=1|pts=N/A|pts_time=N/A|pkt_dts=N/A|pkt_dts_time=N/A|best_effort_timestamp=N/A|best_effort_timestamp_time=N/A|pkt_duration=22528|pkt_duration_time=0.510839|pkt_pos=56|pkt_size=2232|sample_fmt=fltp|nb_samples=2048|channels=2|channel_layout=unknown
frame|media_type=audio|stream_index=0|key_frame=1|pts=N/A|pts_time=N/A|pkt_dts=N/A|pkt_dts_time=N/A|best_effort_timestamp=N/A|best_effort_timestamp_time=N/A|pkt_duration=22528|pkt_duration_time=0.510839|pkt_pos=56|pkt_size=1860|sample_fmt=fltp|nb_samples=2048|channels=2|channel_layout=unknown
frame|media_type=audio|stream_index=0|key_frame=1|pts=N/A|pts_time=N/A|pkt_dts=N/A|pkt_dts_time=N/A|best_effort_timestamp=N/A|best_effort_timestamp_time=N/A|pkt_duration=22528|pkt_duration_time=0.510839|pkt_pos=56|pkt_size=1488|sample_fmt=fltp|nb_samples=2048|channels=2|channel_layout=unknown
frame|media_type=audio|stream_index=0|key_frame=1|pts=N/A|pts_time=N/A|pkt_dts=N/A|pkt_dts_time=N/A|best_effort_timestamp=N/A|best_effort_timestamp_time=N/A|pkt_duration=22528|pkt_duration_time=0.510839|pkt_pos=56|pkt_size=1116|sample_fmt=fltp|nb_samples=2048|channels=2|channel_layout=unknown
frame|media_type=audio|stream_index=0|key_frame=1|pts=N/A|pts_time=N/A|pkt_dts=N/A|pkt_dts_time=N/A|best_effort_timestamp=N/A|best_effort_timestamp_time=N/A|pkt_duration=22528|pkt_duration_time=0.510839|pkt_pos=56|pkt_size=744|sample_fmt=fltp|nb_samples=2048|channels=2|channel_layout=unknown
frame|media_type=audio|stream_index=0|key_frame=1|pts=N/A|pts_time=N/A|pkt_dts=N/A|pkt_dts_time=N/A|best_effort_timestamp=N/A|best_effort_timestamp_time=N/A|pkt_duration=22528|pkt_duration_time=0.510839|pkt_pos=56|pkt_size=372|sample_fmt=fltp|nb_samples=2048|channels=2|channel_layout=unknown
packet|codec_type=audio|stream_index=0|pts=22528|pts_time=0.510839|dts=22528|dts_time=0.510839|duration=22528|duration_time=0.510839|size=4092|pos=4148|flags=K_
frame|media_type=audio|stream_index=0|key_frame=1|pts=22528|pts_time=0.510839|pkt_dts=22528|pkt_dts_time=0.510839|best_effort_timestamp=22528|best_effort_timestamp_time=0.510839|pkt_duration=22528|pkt_duration_time=0.510839|pkt_pos=4148|pkt_size=4092|sample_fmt=fltp|nb_samples=2048|channels=2|channel_layout=unknown
frame|media_type=audio|stream_index=0|key_frame=1|pts=N/A|pts_time=N/A|pkt_dts=N/A|pkt_dts_time=N/A|best_effort_timestamp=N/A|best_effort_timestamp_time=N/A|pkt_duration=22528|pkt_duration_time=0.510839|pkt_pos=4148|pkt_size=3720|sample_fmt=fltp|nb_samples=2048|channels=2|channel_layout=unknown
frame|media_type=audio|stream_index=0|key_frame=1|pts=N/A|pts_time=N/A|pkt_dts=N/A|pkt_dts_time=N/A|best_effort_timestamp=N/A|best_effort_timestamp_time=N/A|pkt_duration=22528|pkt_duration_time=0.510839|pkt_pos=4148|pkt_size=3348|sample_fmt=fltp|nb_samples=2048|channels=2|channel_layout=unknown
frame|media_type=audio|stream_index=0|key_frame=1|pts=N/A|pts_time=N/A|pkt_dts=N/A|pkt_dts_time=N/A|best_effort_timestamp=N/A|best_effort_timestamp_time=N/A|pkt_duration=22528|pkt_duration_time=0.510839|pkt_pos=4148|pkt_size=2976|sample_fmt=fltp|nb_samples=2048|channels=2|channel_layout=unknown
frame|media_type=audio|stream_index=0|key_frame=1|pts=N/A|pts_time=N/A|pkt_dts=N/A|pkt_dts_time=N/A|best_effort_timestamp=N/A|best_effort_timestamp_time=N/A|pkt_duration=22528|pkt_duration_time=0.510839|pkt_pos=4148|pkt_size=2604|sample_fmt=fltp|nb_samples=2048|channels=2|channel_layout=unknown
frame|media_type=audio|stream_index=0|key_frame=1|pts=N/A|pts_time=N/A|pkt_dts=N/A|pkt_dts_time=N/A|best_effort_timestamp=N/A|best_effort_timestamp_time=N/A|pkt_duration=22528|pkt_duration_time=0.510839|pkt_pos=4148|pkt_size=2232|sample_fmt=fltp|nb_samples=2048|channels=2|channel_layout=unknown
frame|media_type=audio|stream_index=0|key_frame=1|pts=N/A|pts_time=N/A|pkt_dts=N/A|pkt_dts_time=N/A|best_effort_timestamp=N/A|best_effort_timestamp_time=N/A|pkt_duration=22528|pkt_duration_time=0.510839|pkt_pos=4148|pkt_size=1860|sample_fmt=fltp|nb_samples=2048|channels=2|channel_layout=unknown
frame|media_type=audio|stream_index=0|key_frame=1|pts=N/A|pts_time=N/A|pkt_dts=N/A|pkt_dts_time=N/A|best_effort_timestamp=N/A|best_effort_timestamp_time=N/A|pkt_duration=22528|pkt_duration_time=0.510839|pkt_pos=4148|pkt_size=1488|sample_fmt=fltp|nb_samples=2048|channels=2|channel_layout=unknown
frame|media_type=audio|stream_index=0|key_frame=1|pts=N/A|pts_time=N/A|pkt_dts=N/A|pkt_dts_time=N/A|best_effort_timestamp=N/A|best_effort_timestamp_time=N/A|pkt_duration=22528|pkt_duration_time=0.510839|pkt_pos=4148|pkt_size=1116|sample_fmt=fltp|nb_samples=2048|channels=2|channel_layout=unknown
frame|media_type=audio|stream_index=0|key_frame=1|pts=N/A|pts_time=N/A|pkt_dts=N/A|pkt_dts_time=N/A|best_effort_timestamp=N/A|best_effort_timestamp_time=N/A|pkt_duration=22528|pkt_duration_time=0.510839|pkt_pos=4148|pkt_size=744|sample_fmt=fltp|nb_samples=2048|channels=2|channel_layout=unknown
frame|media_type=audio|stream_index=0|key_frame=1|pts=N/A|pts_time=N/A|pkt_dts=N/A|pkt_dts_time=N/A|best_effort_timestamp=N/A|best_effort_timestamp_time=N/A|pkt_duration=22528|pkt_duration_time=0.510839|pkt_pos=4148|pkt_size=372|sample_fmt=fltp|nb_samples=2048|channels=2|channel_layout=unknown
packet|codec_type=audio|stream_index=0|pts=45056|pts_time=1.021678|dts=45056|dts_time=1.021678|duration=22528|duration_time=0.510839|size=4092|pos=8240|flags=K_
frame|media_type=audio|stream_index=0|key_frame=1|pts=45056|pts_time=1.021678|pkt_dts=45056|pkt_dts_time=1.021678|best_effort_timestamp=45056|best_effort_timestamp_time=1.021678|pkt_duration=22528|pkt_duration_time=0.510839|pkt_pos=8240|pkt_size=4092|sample_fmt=fltp|nb_samples=2048|channels=2|channel_layout=unknown
frame|media_type=audio|stream_index=0|key_frame=1|pts=N/A|pts_time=N/A|pkt_dts=N/A|pkt_dts_time=N/A|best_effort_timestamp=N/A|best_effort_timestamp_time=N/A|pkt_duration=22528|pkt_duration_time=0.510839|pkt_pos=8240|pkt_size=3720|sample_fmt=fltp|nb_samples=2048|channels=2|channel_layout=unknown
frame|media_type=audio|stream_index=0|key_frame=1|pts=N/A|pts_time=N/A|pkt_dts=N/A|pkt_dts_time=N/A|best_effort_timestamp=N/A|best_effort_timestamp_time=N/A|pkt_duration=22528|pkt_duration_time=0.510839|pkt_pos=8240|pkt_size=3348|sample_fmt=fltp|nb_samples=2048|channels=2|channel_layout=unknown
frame|media_type=audio|stream_index=0|key_frame=1|pts=N/A|pts_time=N/A|pkt_dts=N/A|pkt_dts_time=N/A|best_effort_timestamp=N/A|best_effort_timestamp_time=N/A|pkt_duration=22528|pkt_duration_time=0.510839|pkt_pos=8240|pkt_size=2976|sample_fmt=fltp|nb_samples=2048|channels=2|channel_layout=unknown
frame|media_type=audio|stream_index=0|key_frame=1|pts=N/A|pts_time=N/A|pkt_dts=N/A|pkt_dts_time=N/A|best_effort_timestamp=N/A|best_effort_timestamp_time=N/A|pkt_duration=22528|pkt_duration_time=0.510839|pkt_pos=8240|pkt_size=2604|sample_fmt=fltp|nb_samples=2048|channels=2|channel_layout=unknown
frame|media_type=audio|stream_index=0|key_frame=1|pts=N/A|pts_time=N/A|pkt_dts=N/A|pkt_dts_time=N/A|best_effort_timestamp=N/A|best_effort_timestamp_time=N/A|pkt_duration=22528|pkt_duration_time=0.510839|pkt_pos=8240|pkt_size=2232|sample_fmt=fltp|nb_samples=2048|channels=2|channel_layout=unknown
frame|media_type=audio|stream_index=0|key_frame=1|pts=N/A|pts_time=N/A|pkt_dts=N/A|pkt_dts_time=N/A|best_effort_timestamp=N/A|best_effort_timestamp_time=N/A|pkt_duration=22528|pkt_duration_time=0.510839|pkt_pos=8240|pkt_size=1860|sample_fmt=fltp|nb_samples=2048|channels=2|channel_layout=unknown
frame|media_type=audio|stream_index=0|key_frame=1|pts=N/A|pts_time=N/A|pkt_dts=N/A|pkt_dts_time=N/A|best_effort_timestamp=N/A|best_effort_timestamp_time=N/A|pkt_duration=22528|pkt_duration_time=0.510839|pkt_pos=8240|pkt_size=1488|sample_fmt=fltp|nb_samples=2048|channels=2|channel_layout=unknown
frame|media_type=audio|stream_index=0|key_frame=1|pts=N/A|pts_time=N/A|pkt_dts=N/A|pkt_dts_time=N/A|best_effort_timestamp=N/A|best_effort_timestamp_time=N/A|pkt_duration=22528|pkt_duration_time=0.510839|pkt_pos=8240|pkt_size=1116|sample_fmt=fltp|nb_samples=2048|channels=2|channel_layout=unknown
frame|media_type=audio|stream_index=0|key_frame=1|pts=N/A|pts_time=N/A|pkt_dts=N/A|pkt_dts_time=N/A|best_effort_timestamp=N/A|best_effort_timestamp_time=N/A|pkt_duration=22528|pkt_duration_time=0.510839|pkt_pos=8240|pkt_size=744|sample_fmt=fltp|nb_samples=2048|channels=2|channel_layout=unknown
frame|media_type=audio|stream_index=0|key_frame=1|pts=N/A|pts_time=N/A|pkt_dts=N/A|pkt_dts_time=N/A|best_effort_timestamp=N/A|best_effort_timestamp_time=N/A|pkt_duration=22528|pkt_duration_time=0.510839|pkt_pos=8240|pkt_size=372|sample_fmt=fltp|nb_samples=2048|channels=2|channel_layout=unknown
packet|codec_type=audio|stream_index=0|pts=67584|pts_time=1.532517|dts=67584|dts_time=1.532517|duration=22528|duration_time=0.510839|size=4092|pos=12332|flags=K_
frame|media_type=audio|stream_index=0|key_frame=1|pts=67584|pts_time=1.532517|pkt_dts=67584|pkt_dts_time=1.532517|best_effort_timestamp=67584|best_effort_timestamp_time=1.532517|pkt_duration=22528|pkt_duration_time=0.510839|pkt_pos=12332|pkt_size=4092|sample_fmt=fltp|nb_samples=2048|channels=2|channel_layout=unknown
frame|media_type=audio|stream_index=0|key_frame=1|pts=N/A|pts_time=N/A|pkt_dts=N/A|pkt_dts_time=N/A|best_effort_timestamp=N/A|best_effort_timestamp_time=N/A|pkt_duration=22528|pkt_duration_time=0.510839|pkt_pos=12332|pkt_size=3720|sample_fmt=fltp|nb_samples=2048|channels=2|channel_layout=unknown
frame|media_type=audio|stream_index=0|key_frame=1|pts=N/A|pts_time=N/A|pkt_dts=N/A|pkt_dts_time=N/A|best_effort_timestamp=N/A|best_effort_timestamp_time=N/A|pkt_duration=22528|pkt_duration_time=0.510839|pkt_pos=12332|pkt_size=3348|sample_fmt=fltp|nb_samples=2048|channels=2|channel_layout=unknown
frame|media_type=audio|stream_index=0|key_frame=1|pts=N/A|pts_time=N/A|pkt_dts=N/A|pkt_dts_time=N/A|best_effort_timestamp=N/A|best_effort_timestamp_time=N/A|pkt_duration=22528|pkt_duration_time=0.510839|pkt_pos=12332|pkt_size=2976|sample_fmt=fltp|nb_samples=2048|channels=2|channel_layout=unknown
frame|media_type=audio|stream_index=0|key_frame=1|pts=N/A|pts_time=N/A|pkt_dts=N/A|pkt_dts_time=N/A|best_effort_timestamp=N/A|best_effort_timestamp_time=N/A|pkt_duration=22528|pkt_duration_time=0.510839|pkt_pos=12332|pkt_size=2604|sample_fmt=fltp|nb_samples=2048|channels=2|channel_layout=unknown
frame|media_type=audio|stream_index=0|key_frame=1|pts=N/A|pts_time=N/A|pkt_dts=N/A|pkt_dts_time=N/A|best_effort_timestamp=N/A|best_effort_timestamp_time=N/A|pkt_duration=22528|pkt_duration_time=0.510839|pkt_pos=12332|pkt_size=2232|sample_fmt=fltp|nb_samples=2048|channels=2|channel_layout=unknown
frame|media_type=audio|stream_index=0|key_frame=1|pts=N/A|pts_time=N/A|pkt_dts=N/A|pkt_dts_time=N/A|best_effort_timestamp=N/A|best_effort_timestamp_time=N/A|pkt_duration=22528|pkt_duration_time=0.510839|pkt_pos=12332|pkt_size=1860|sample_fmt=fltp|nb_samples=2048|channels=2|channel_layout=unknown
frame|media_type=audio|stream_index=0|key_frame=1|pts=N/A|pts_time=N/A|pkt_dts=N/A|pkt_dts_time=N/A|best_effort_timestamp=N/A|best_effort_timestamp_time=N/A|pkt_duration=22528|pkt_duration_time=0.510839|pkt_pos=12332|pkt_size=1488|sample_fmt=fltp|nb_samples=2048|channels=2|channel_layout=unknown
frame|media_type=audio|stream_index=0|key_frame=1|pts=N/A|pts_time=N/A|pkt_dts=N/A|pkt_dts_time=N/A|best_effort_timestamp=N/A|best_effort_timestamp_time=N/A|pkt_duration=22528|pkt_duration_time=0.510839|pkt_pos=12332|pkt_size=1116|sample_fmt=fltp|nb_samples=2048|channels=2|channel_layout=unknown
frame|media_type=audio|stream_index=0|key_frame=1|pts=N/A|pts_time=N/A|pkt_dts=N/A|pkt_dts_time=N/A|best_effort_timestamp=N/A|best_effort_timestamp_time=N/A|pkt_duration=22528|pkt_duration_time=0.510839|pkt_pos=12332|pkt_size=744|sample_fmt=fltp|nb_samples=2048|channels=2|channel_layout=unknown
frame|media_type=audio|stream_index=0|key_frame=1|pts=N/A|pts_time=N/A|pkt_dts=N/A|pkt_dts_time=N/A|best_effort_timestamp=N/A|best_effort_timestamp_time=N/A|pkt_duration=22528|pkt_duration_time=0.510839|pkt_pos=12332|pkt_size=372|sample_fmt=fltp|nb_samples=2048|channels=2|channel_layout=unknown
packet|codec_type=audio|stream_index=0|pts=90112|pts_time=2.043356|dts=90112|dts_time=2.043356|duration=22528|duration_time=0.510839|size=4092|pos=16424|flags=K_
frame|media_type=audio|stream_index=0|key_frame=1|pts=90112|pts_time=2.043356|pkt_dts=90112|pkt_dts_time=2.043356|best_effort_timestamp=90112|best_effort_timestamp_time=2.043356|pkt_duration=22528|pkt_duration_time=0.510839|pkt_pos=16424|pkt_size=4092|sample_fmt=fltp|nb_samples=2048|channels=2|channel_layout=unknown
frame|media_type=audio|stream_index=0|key_frame=1|pts=N/A|pts_time=N/A|pkt_dts=N/A|pkt_dts_time=N/A|best_effort_timestamp=N/A|best_effort_timestamp_time=N/A|pkt_duration=22528|pkt_duration_time=0.510839|pkt_pos=16424|pkt_size=3720|sample_fmt=fltp|nb_samples=2048|channels=2|channel_layout=unknown
frame|media_type=audio|stream_index=0|key_frame=1|pts=N/A|pts_time=N/A|pkt_dts=N/A|pkt_dts_time=N/A|best_effort_timestamp=N/A|best_effort_timestamp_time=N/A|pkt_duration=22528|pkt_duration_time=0.510839|pkt_pos=16424|pkt_size=3348|sample_fmt=fltp|nb_samples=2048|channels=2|channel_layout=unknown
frame|media_type=audio|stream_index=0|key_frame=1|pts=N/A|pts_time=N/A|pkt_dts=N/A|pkt_dts_time=N/A|best_effort_timestamp=N/A|best_effort_timestamp_time=N/A|pkt_duration=22528|pkt_duration_time=0.510839|pkt_pos=16424|pkt_size=2976|sample_fmt=fltp|nb_samples=2048|channels=2|channel_layout=unknown
frame|media_type=audio|stream_index=0|key_frame=1|pts=N/A|pts_time=N/A|pkt_dts=N/A|pkt_dts_time=N/A|best_effort_timestamp=N/A|best_effort_timestamp_time=N/A|pkt_duration=22528|pkt_duration_time=0.510839|pkt_pos=16424|pkt_size=2604|sample_fmt=fltp|nb_samples=2048|channels=2|channel_layout=unknown
frame|media_type=audio|stream_index=0|key_frame=1|pts=N/A|pts_time=N/A|pkt_dts=N/A|pkt_dts_time=N/A|best_effort_timestamp=N/A|best_effort_timestamp_time=N/A|pkt_duration=22528|pkt_duration_time=0.510839|pkt_pos=16424|pkt_size=2232|sample_fmt=fltp|nb_samples=2048|channels=2|channel_layout=unknown
frame|media_type=audio|stream_index=0|key_frame=1|pts=N/A|pts_time=N/A|pkt_dts=N/A|pkt_dts_time=N/A|best_effort_timestamp=N/A|best_effort_timestamp_time=N/A|pkt_duration=22528|pkt_duration_time=0.510839|pkt_pos=16424|pkt_size=1860|sample_fmt=fltp|nb_samples=2048|channels=2|channel_layout=unknown
frame|media_type=audio|stream_index=0|key_frame=1|pts=N/A|pts_time=N/A|pkt_dts=N/A|pkt_dts_time=N/A|best_effort_timestamp=N/A|best_effort_timestamp_time=N/A|pkt_duration=22528|pkt_duration_time=0.510839|pkt_pos=16424|pkt_size=1488|sample_fmt=fltp|nb_samples=2048|channels=2|channel_layout=unknown
frame|media_type=audio|stream_index=0|key_frame=1|pts=N/A|pts_time=N/A|pkt_dts=N/A|pkt_dts_time=N/A|best_effort_timestamp=N/A|best_effort_timestamp_time=N/A|pkt_duration=22528|pkt_duration_time=0.510839|pkt_pos=16424|pkt_size=1116|sample_fmt=fltp|nb_samples=2048|channels=2|channel_layout=unknown
frame|media_type=audio|stream_index=0|key_frame=1|pts=N/A|pts_time=N/A|pkt_dts=N/A|pkt_dts_time=N/A|best_effort_timestamp=N/A|best_effort_timestamp_time=N/A|pkt_duration=22528|pkt_duration_time=0.510839|pkt_pos=16424|pkt_size=744|sample_fmt=fltp|nb_samples=2048|channels=2|channel_layout=unknown
frame|media_type=audio|stream_index=0|key_frame=1|pts=N/A|pts_time=N/A|pkt_dts=N/A|pkt_dts_time=N/A|best_effort_timestamp=N/A|best_effort_timestamp_time=N/A|pkt_duration=22528|pkt_duration_time=0.510839|pkt_pos=16424|pkt_size=372|sample_fmt=fltp|nb_samples=2048|channels=2|channel_layout=unknown
packet|codec_type=audio|stream_index=0|pts=112640|pts_time=2.554195|dts=112640|dts_time=2.554195|duration=22528|duration_time=0.510839|size=4092|pos=20516|flags=K_
frame|media_type=audio|stream_index=0|key_frame=1|pts=112640|pts_time=2.554195|pkt_dts=112640|pkt_dts_time=2.554195|best_effort_timestamp=112640|best_effort_timestamp_time=2.554195|pkt_duration=22528|pkt_duration_time=0.510839|pkt_pos=20516|pkt_size=4092|sample_fmt=fltp|nb_samples=2048|channels=2|channel_layout=unknown
frame|media_type=audio|stream_index=0|key_frame=1|pts=N/A|pts_time=N/A|pkt_dts=N/A|pkt_dts_time=N/A|best_effort_timestamp=N/A|best_effort_timestamp_time=N/A|pkt_duration=22528|pkt_duration_time=0.510839|pkt_pos=20516|pkt_size=3720|sample_fmt=fltp|nb_samples=2048|channels=2|channel_layout=unknown
frame|media_type=audio|stream_index=0|key_frame=1|pts=N/A|pts_time=N/A|pkt_dts=N/A|pkt_dts_time=N/A|best_effort_timestamp=N/A|best_effort_timestamp_time=N/A|pkt_duration=22528|pkt_duration_time=0.510839|pkt_pos=20516|pkt_size=3348|sample_fmt=fltp|nb_samples=2048|channels=2|channel_layout=unknown
frame|media_type=audio|stream_index=0|key_frame=1|pts=N/A|pts_time=N/A|pkt_dts=N/A|pkt_dts_time=N/A|best_effort_timestamp=N/A|best_effort_timestamp_time=N/A|pkt_duration=22528|pkt_duration_time=0.510839|pkt_pos=20516|pkt_size=2976|sample_fmt=fltp|nb_samples=2048|channels=2|channel_layout=unknown
frame|media_type=audio|stream_index=0|key_frame=1|pts=N/A|pts_time=N/A|pkt_dts=N/A|pkt_dts_time=N/A|best_effort_timestamp=N/A|best_effort_timestamp_time=N/A|pkt_duration=22528|pkt_duration_time=0.510839|pkt_pos=20516|pkt_size=2604|sample_fmt=fltp|nb_samples=2048|channels=2|channel_layout=unknown
frame|media_type=audio|stream_index=0|key_frame=1|pts=N/A|pts_time=N/A|pkt_dts=N/A|pkt_dts_time=N/A|best_effort_timestamp=N/A|best_effort_timestamp_time=N/A|pkt_duration=22528|pkt_duration_time=0.510839|pkt_pos=20516|pkt_size=2232|sample_fmt=fltp|nb_samples=2048|channels=2|channel_layout=unknown
frame|media_type=audio|stream_index=0|key_frame=1|pts=N/A|pts_time=N/A|pkt_dts=N/A|pkt_dts_time=N/A|best_effort_timestamp=N/A|best_effort_timestamp_time=N/A|pkt_duration=22528|pkt_duration_time=0.510839|pkt_pos=20516|pkt_size=1860|sample_fmt=fltp|nb_samples=2048|channels=2|channel_layout=unknown
frame|media_type=audio|stream_index=0|key_frame=1|pts=N/A|pts_time=N/A|pkt_dts=N/A|pkt_dts_time=N/A|best_effort_timestamp=N/A|best_effort_timestamp_time=N/A|pkt_duration=22528|pkt_duration_time=0.510839|pkt_pos=20516|pkt_size=1488|sample_fmt=fltp|nb_samples=2048|channels=2|channel_layout=unknown
frame|media_type=audio|stream_index=0|key_frame=1|pts=N/A|pts_time=N/A|pkt_dts=N/A|pkt_dts_time=N/A|best_effort_timestamp=N/A|best_effort_timestamp_time=N/A|pkt_duration=22528|pkt_duration_time=0.510839|pkt_pos=20516|pkt_size=1116|sample_fmt=fltp|nb_samples=2048|channels=2|channel_layout=unknown
frame|media_type=audio|stream_index=0|key_frame=1|pts=N/A|pts_time=N/A|pkt_dts=N/A|pkt_dts_time=N/A|best_effort_timestamp=N/A|best_effort_timestamp_time=N/A|pkt_duration=22528|pkt_duration_time=0.510839|pkt_pos=20516|pkt_size=744|sample_fmt=fltp|nb_samples=2048|channels=2|channel_layout=unknown
frame|media_type=audio|stream_index=0|key_frame=1|pts=N/A|pts_time=N/A|pkt_dts=N/A|pkt_dts_time=N/A|best_effort_timestamp=N/A|best_effort_timestamp_time=N/A|pkt_duration=22528|pkt_duration_time=0.510839|pkt_pos=20516|pkt_size=372|sample_fmt=fltp|nb_samples=2048|channels=2|channel_layout=unknown
packet|codec_type=audio|stream_index=0|pts=135168|pts_time=3.065034|dts=135168|dts_time=3.065034|duration=22528|duration_time=0.510839|size=4092|pos=24608|flags=K_
frame|media_type=audio|stream_index=0|key_frame=1|pts=135168|pts_time=3.065034|pkt_dts=135168|pkt_dts_time=3.065034|best_effort_timestamp=135168|best_effort_timestamp_time=3.065034|pkt_duration=22528|pkt_duration_time=0.510839|pkt_pos=24608|pkt_size=4092|sample_fmt=fltp|nb_samples=2048|channels=2|channel_layout=unknown
frame|media_type=audio|stream_index=0|key_frame=1|pts=N/A|pts_time=N/A|pkt_dts=N/A|pkt_dts_time=N/A|best_effort_timestamp=N/A|best_effort_timestamp_time=N/A|pkt_duration=22528|pkt_duration_time=0.510839|pkt_pos=24608|pkt_size=3720|sample_fmt=fltp|nb_samples=2048|channels=2|channel_layout=unknown
frame|media_type=audio|stream_index=0|key_frame=1|pts=N/A|pts_time=N/A|pkt_dts=N/A|pkt_dts_time=N/A|best_effort_timestamp=N/A|best_effort_timestamp_time=N/A|pkt_duration=22528|pkt_duration_time=0.510839|pkt_pos=24608|pkt_size=3348|sample_fmt=fltp|nb_samples=2048|channels=2|channel_layout=unknown
frame|media_type=audio|stream_index=0|key_frame=1|pts=N/A|pts_time=N/A|pkt_dts=N/A|pkt_dts_time=N/A|best_effort_timestamp=N/A|best_effort_timestamp_time=N/A|pkt_duration=22528|pkt_duration_time=0.510839|pkt_pos=24608|pkt_size=2976|sample_fmt=fltp|nb_samples=2048|channels=2|channel_layout=unknown
frame|media_type=audio|stream_index=0|key_frame=1|pts=N/A|pts_time=N/A|pkt_dts=N/A|pkt_dts_time=N/A|best_effort_timestamp=N/A|best_effort_timestamp_time=N/A|pkt_duration=22528|pkt_duration_time=0.510839|pkt_pos=24608|pkt_size=2604|sample_fmt=fltp|nb_samples=2048|channels=2|channel_layout=unknown
frame|media_type=audio|stream_index=0|key_frame=1|pts=N/A|pts_time=N/A|pkt_dts=N/A|pkt_dts_time=N/A|best_effort_timestamp=N/A|best_effort_timestamp_time=N/A|pkt_duration=22528|pkt_duration_time=0.510839|pkt_pos=24608|pkt_size=2232|sample_fmt=fltp|nb_samples=2048|channels=2|channel_layout=unknown
frame|media_type=audio|stream_index=0|key_frame=1|pts=N/A|pts_time=N/A|pkt_dts=N/A|pkt_dts_time=N/A|best_effort_timestamp=N/A|best_effort_timestamp_time=N/A|pkt_duration=22528|pkt_duration_time=0.510839|pkt_pos=24608|pkt_size=1860|sample_fmt=fltp|nb_samples=2048|channels=2|channel_layout=unknown
frame|media_type=audio|stream_index=0|key_frame=1|pts=N/A|pts_time=N/A|pkt_dts=N/A|pkt_dts_time=N/A|best_effort_timestamp=N/A|best_effort_timestamp_time=N/A|pkt_duration=22528|pkt_duration_time=0.510839|pkt_pos=24608|pkt_size=1488|sample_fmt=fltp|nb_samples=2048|channels=2|channel_layout=unknown
frame|media_type=audio|stream_index=0|key_frame=1|pts=N/A|pts_time=N/A|pkt_dts=N/A|pkt_dts_time=N/A|best_effort_timestamp=N/A|best_effort_timestamp_time=N/A|pkt_duration=22528|pkt_duration_time=0.510839|pkt_pos=24608|pkt_size=1116|sample_fmt=fltp|nb_samples=2048|channels=2|channel_layout=unknown
frame|media_type=audio|stream_index=0|key_frame=1|pts=N/A|pts_time=N/A|pkt_dts=N/A|pkt_dts_time=N/A|best_effort_timestamp=N/A|best_effort_timestamp_time=N/A|pkt_duration=22528|pkt_duration_time=0.510839|pkt_pos=24608|pkt_size=744|sample_fmt=fltp|nb_samples=2048|channels=2|channel_layout=unknown
frame|media_type=audio|stream_index=0|key_frame=1|pts=N/A|pts_time=N/A|pkt_dts=N/A|pkt_dts_time=N/A|best_effort_timestamp=N/A|best_effort_timestamp_time=N/A|pkt_duration=22528|pkt_duration_time=0.510839|pkt_pos=24608|pkt_size=372|sample_fmt=fltp|nb_samples=2048|channels=2|channel_layout=unknown
packet|codec_type=audio|stream_index=0|pts=157696|pts_time=3.575873|dts=157696|dts_time=3.575873|duration=22528|duration_time=0.510839|size=4092|pos=28700|flags=K_
frame|media_type=audio|stream_index=0|key_frame=1|pts=157696|pts_time=3.575873|pkt_dts=157696|pkt_dts_time=3.575873|best_effort_timestamp=157696|best_effort_timestamp_time=3.575873|pkt_duration=22528|pkt_duration_time=0.510839|pkt_pos=28700|pkt_size=4092|sample_fmt=fltp|nb_samples=2048|channels=2|channel_layout=unknown
frame|media_type=audio|stream_index=0|key_frame=1|pts=N/A|pts_time=N/A|pkt_dts=N/A|pkt_dts_time=N/A|best_effort_timestamp=N/A|best_effort_timestamp_time=N/A|pkt_duration=22528|pkt_duration_time=0.510839|pkt_pos=28700|pkt_size=3720|sample_fmt=fltp|nb_samples=2048|channels=2|channel_layout=unknown
frame|media_type=audio|stream_index=0|key_frame=1|pts=N/A|pts_time=N/A|pkt_dts=N/A|pkt_dts_time=N/A|best_effort_timestamp=N/A|best_effort_timestamp_time=N/A|pkt_duration=22528|pkt_duration_time=0.510839|pkt_pos=28700|pkt_size=3348|sample_fmt=fltp|nb_samples=2048|channels=2|channel_layout=unknown
frame|media_type=audio|stream_index=0|key_frame=1|pts=N/A|pts_time=N/A|pkt_dts=N/A|pkt_dts_time=N/A|best_effort_timestamp=N/A|best_effort_timestamp_time=N/A|pkt_duration=22528|pkt_duration_time=0.510839|pkt_pos=28700|pkt_size=2976|sample_fmt=fltp|nb_samples=2048|channels=2|channel_layout=unknown
frame|media_type=audio|stream_index=0|key_frame=1|pts=N/A|pts_time=N/A|pkt_dts=N/A|pkt_dts_time=N/A|best_effort_timestamp=N/A|best_effort_timestamp_time=N/A|pkt_duration=22528|pkt_duration_time=0.510839|pkt_pos=28700|pkt_size=2604|sample_fmt=fltp|nb_samples=2048|channels=2|channel_layout=unknown
frame|media_type=audio|stream_index=0|key_frame=1|pts=N/A|pts_time=N/A|pkt_dts=N/A|pkt_dts_time=N/A|best_effort_timestamp=N/A|best_effort_timestamp_time=N/A|pkt_duration=22528|pkt_duration_time=0.510839|pkt_pos=28700|pkt_size=2232|sample_fmt=fltp|nb_samples=2048|channels=2|channel_layout=unknown
frame|media_type=audio|stream_index=0|key_frame=1|pts=N/A|pts_time=N/A|pkt_dts=N/A|pkt_dts_time=N/A|best_effort_timestamp=N/A|best_effort_timestamp_time=N/A|pkt_duration=22528|pkt_duration_time=0.510839|pkt_pos=28700|pkt_size=1860|sample_fmt=fltp|nb_samples=2048|channels=2|channel_layout=unknown
frame|media_type=audio|stream_index=0|key_frame=1|pts=N/A|pts_time=N/A|pkt_dts=N/A|pkt_dts_time=N/A|best_effort_timestamp=N/A|best_effort_timestamp_time=N/A|pkt_duration=22528|pkt_duration_time=0.510839|pkt_pos=28700|pkt_size=1488|sample_fmt=fltp|nb_samples=2048|channels=2|channel_layout=unknown
frame|media_type=audio|stream_index=0|key_frame=1|pts=N/A|pts_time=N/A|pkt_dts=N/A|pkt_dts_time=N/A|best_effort_timestamp=N/A|best_effort_timestamp_time=N/A|pkt_duration=22528|pkt_duration_time=0.510839|pkt_pos=28700|pkt_size=1116|sample_fmt=fltp|nb_samples=2048|channels=2|channel_layout=unknown
frame|media_type=audio|stream_index=0|key_frame=1|pts=N/A|pts_time=N/A|pkt_dts=N/A|pkt_dts_time=N/A|best_effort_timestamp=N/A|best_effort_timestamp_time=N/A|pkt_duration=22528|pkt_duration_time=0.510839|pkt_pos=28700|pkt_size=744|sample_fmt=fltp|nb_samples=2048|channels=2|channel_layout=unknown
frame|media_type=audio|stream_index=0|key_frame=1|pts=N/A|pts_time=N/A|pkt_dts=N/A|pkt_dts_time=N/A|best_effort_timestamp=N/A|best_effort_timestamp_time=N/A|pkt_duration=22528|pkt_duration_time=0.510839|pkt_pos=28700|pkt_size=372|sample_fmt=fltp|nb_samples=2048|channels=2|channel_layout=unknown
packet|codec_type=audio|stream_index=0|pts=180224|pts_time=4.086712|dts=180224|dts_time=4.086712|duration=22528|duration_time=0.510839|size=4092|pos=32792|flags=K_
frame|media_type=audio|stream_index=0|key_frame=1|pts=180224|pts_time=4.086712|pkt_dts=180224|pkt_dts_time=4.086712|best_effort_timestamp=180224|best_effort_timestamp_time=4.086712|pkt_duration=22528|pkt_duration_time=0.510839|pkt_pos=32792|pkt_size=4092|sample_fmt=fltp|nb_samples=2048|channels=2|channel_layout=unknown
frame|media_type=audio|stream_index=0|key_frame=1|pts=N/A|pts_time=N/A|pkt_dts=N/A|pkt_dts_time=N/A|best_effort_timestamp=N/A|best_effort_timestamp_time=N/A|pkt_duration=22528|pkt_duration_time=0.510839|pkt_pos=32792|pkt_size=3720|sample_fmt=fltp|nb_samples=2048|channels=2|channel_layout=unknown
frame|media_type=audio|stream_index=0|key_frame=1|pts=N/A|pts_time=N/A|pkt_dts=N/A|pkt_dts_time=N/A|best_effort_timestamp=N/A|best_effort_timestamp_time=N/A|pkt_duration=22528|pkt_duration_time=0.510839|pkt_pos=32792|pkt_size=3348|sample_fmt=fltp|nb_samples=2048|channels=2|channel_layout=unknown
frame|media_type=audio|stream_index=0|key_frame=1|pts=N/A|pts_time=N/A|pkt_dts=N/A|pkt_dts_time=N/A|best_effort_timestamp=N/A|best_effort_timestamp_time=N/A|pkt_duration=22528|pkt_duration_time=0.510839|pkt_pos=32792|pkt_size=2976|sample_fmt=fltp|nb_samples=2048|channels=2|channel_layout=unknown
frame|media_type=audio|stream_index=0|key_frame=1|pts=N/A|pts_time=N/A|pkt_dts=N/A|pkt_dts_time=N/A|best_effort_timestamp=N/A|best_effort_timestamp_time=N/A|pkt_duration=22528|pkt_duration_time=0.510839|pkt_pos=32792|pkt_size=2604|sample_fmt=fltp|nb_samples=2048|channels=2|channel_layout=unknown
frame|media_type=audio|stream_index=0|key_frame=1|pts=N/A|pts_time=N/A|pkt_dts=N/A|pkt_dts_time=N/A|best_effort_timestamp=N/A|best_effort_timestamp_time=N/A|pkt_duration=22528|pkt_duration_time=0.510839|pkt_pos=32792|pkt_size=2232|sample_fmt=fltp|nb_samples=2048|channels=2|channel_layout=unknown
frame|media_type=audio|stream_index=0|key_frame=1|pts=N/A|pts_time=N/A|pkt_dts=N/A|pkt_dts_time=N/A|best_effort_timestamp=N/A|best_effort_timestamp_time=N/A|pkt_duration=22528|pkt_duration_time=0.510839|pkt_pos=32792|pkt_size=1860|sample_fmt=fltp|nb_samples=2048|channels=2|channel_layout=unknown
frame|media_type=audio|stream_index=0|key_frame=1|pts=N/A|pts_time=N/A|pkt_dts=N/A|pkt_dts_time=N/A|best_effort_timestamp=N/A|best_effort_timestamp_time=N/A|pkt_duration=22528|pkt_duration_time=0.510839|pkt_pos=32792|pkt_size=1488|sample_fmt=fltp|nb_samples=2048|channels=2|channel_layout=unknown
frame|media_type=audio|stream_index=0|key_frame=1|pts=N/A|pts_time=N/A|pkt_dts=N/A|pkt_dts_time=N/A|best_effort_timestamp=N/A|best_effort_timestamp_time=N/A|pkt_duration=22528|pkt_duration_time=0.510839|pkt_pos=32792|pkt_size=1116|sample_fmt=fltp|nb_samples=2048|channels=2|channel_layout=unknown
frame|media_type=audio|stream_index=0|key_frame=1|pts=N/A|pts_time=N/A|pkt_dts=N/A|pkt_dts_time=N/A|best_effort_timestamp=N/A|best_effort_timestamp_time=N/A|pkt_duration=22528|pkt_duration_time=0.510839|pkt_pos=32792|pkt_size=744|sample_fmt=fltp|nb_samples=2048|channels=2|channel_layout=unknown
frame|media_type=audio|stream_index=0|key_frame=1|pts=N/A|pts_time=N/A|pkt_dts=N/A|pkt_dts_time=N/A|best_effort_timestamp=N/A|best_effort_timestamp_time=N/A|pkt_duration=22528|pkt_duration_time=0.510839|pkt_pos=32792|pkt_size=372|sample_fmt=fltp|nb_samples=2048|channels=2|channel_layout=unknown
packet|codec_type=audio|stream_index=0|pts=202752|pts_time=4.597551|dts=202752|dts_time=4.597551|duration=22528|duration_time=0.510839|size=4092|pos=36884|flags=K_
frame|media_type=audio|stream_index=0|key_frame=1|pts=202752|pts_time=4.597551|pkt_dts=202752|pkt_dts_time=4.597551|best_effort_timestamp=202752|best_effort_timestamp_time=4.597551|pkt_duration=22528|pkt_duration_time=0.510839|pkt_pos=36884|pkt_size=4092|sample_fmt=fltp|nb_samples=2048|channels=2|channel_layout=unknown
frame|media_type=audio|stream_index=0|key_frame=1|pts=N/A|pts_time=N/A|pkt_dts=N/A|pkt_dts_time=N/A|best_effort_timestamp=N/A|best_effort_timestamp_time=N/A|pkt_duration=22528|pkt_duration_time=0.510839|pkt_pos=36884|pkt_size=3720|sample_fmt=fltp|nb_samples=2048|channels=2|channel_layout=unknown
frame|media_type=audio|stream_index=0|key_frame=1|pts=N/A|pts_time=N/A|pkt_dts=N/A|pkt_dts_time=N/A|best_effort_timestamp=N/A|best_effort_timestamp_time=N/A|pkt_duration=22528|pkt_duration_time=0.510839|pkt_pos=36884|pkt_size=3348|sample_fmt=fltp|nb_samples=2048|channels=2|channel_layout=unknown
frame|media_type=audio|stream_index=0|key_frame=1|pts=N/A|pts_time=N/A|pkt_dts=N/A|pkt_dts_time=N/A|best_effort_timestamp=N/A|best_effort_timestamp_time=N/A|pkt_duration=22528|pkt_duration_time=0.510839|pkt_pos=36884|pkt_size=2976|sample_fmt=fltp|nb_samples=2048|channels=2|channel_layout=unknown
frame|media_type=audio|stream_index=0|key_frame=1|pts=N/A|pts_time=N/A|pkt_dts=N/A|pkt_dts_time=N/A|best_effort_timestamp=N/A|best_effort_timestamp_time=N/A|pkt_duration=22528|pkt_duration_time=0.510839|pkt_pos=36884|pkt_size=2604|sample_fmt=fltp|nb_samples=2048|channels=2|channel_layout=unknown
frame|media_type=audio|stream_index=0|key_frame=1|pts=N/A|pts_time=N/A|pkt_dts=N/A|pkt_dts_time=N/A|best_effort_timestamp=N/A|best_effort_timestamp_time=N/A|pkt_duration=22528|pkt_duration_time=0.510839|pkt_pos=36884|pkt_size=2232|sample_fmt=fltp|nb_samples=2048|channels=2|channel_layout=unknown
frame|media_type=audio|stream_index=0|key_frame=1|pts=N/A|pts_time=N/A|pkt_dts=N/A|pkt_dts_time=N/A|best_effort_timestamp=N/A|best_effort_timestamp_time=N/A|pkt_duration=22528|pkt_duration_time=0.510839|pkt_pos=36884|pkt_size=1860|sample_fmt=fltp|nb_samples=2048|channels=2|channel_layout=unknown
frame|media_type=audio|stream_index=0|key_frame=1|pts=N/A|pts_time=N/A|pkt_dts=N/A|pkt_dts_time=N/A|best_effort_timestamp=N/A|best_effort_timestamp_time=N/A|pkt_duration=22528|pkt_duration_time=0.510839|pkt_pos=36884|pkt_size=1488|sample_fmt=fltp|nb_samples=2048|channels=2|channel_layout=unknown
frame|media_type=audio|stream_index=0|key_frame=1|pts=N/A|pts_time=N/A|pkt_dts=N/A|pkt_dts_time=N/A|best_effort_timestamp=N/A|best_effort_timestamp_time=N/A|pkt_duration=22528|pkt_duration_time=0.510839|pkt_pos=36884|pkt_size=1116|sample_fmt=fltp|nb_samples=2048|channels=2|channel_layout=unknown
frame|media_type=audio|stream_index=0|key_frame=1|pts=N/A|pts_time=N/A|pkt_dts=N/A|pkt_dts_time=N/A|best_effort_timestamp=N/A|best_effort_timestamp_time=N/A|pkt_duration=22528|pkt_duration_time=0.510839|pkt_pos=36884|pkt_size=744|sample_fmt=fltp|nb_samples=2048|channels=2|channel_layout=unknown
frame|media_type=audio|stream_index=0|key_frame=1|pts=N/A|pts_time=N/A|pkt_dts=N/A|pkt_dts_time=N/A|best_effort_timestamp=N/A|best_effort_timestamp_time=N/A|pkt_duration=22528|pkt_duration_time=0.510839|pkt_pos=36884|pkt_size=372|sample_fmt=fltp|nb_samples=2048|channels=2|channel_layout=unknown
packet|codec_type=audio|stream_index=0|pts=225280|pts_time=5.108390|dts=225280|dts_time=5.108390|duration=22528|duration_time=0.510839|size=4092|pos=40976|flags=K_
frame|media_type=audio|stream_index=0|key_frame=1|pts=225280|pts_time=5.108390|pkt_dts=225280|pkt_dts_time=5.108390|best_effort_timestamp=225280|best_effort_timestamp_time=5.108390|pkt_duration=22528|pkt_duration_time=0.510839|pkt_pos=40976|pkt_size=4092|sample_fmt=fltp|nb_samples=2048|channels=2|channel_layout=unknown
frame|media_type=audio|stream_index=0|key_frame=1|pts=N/A|pts_time=N/A|pkt_dts=N/A|pkt_dts_time=N/A|best_effort_timestamp=N/A|best_effort_timestamp_time=N/A|pkt_duration=22528|pkt_duration_time=0.510839|pkt_pos=40976|pkt_size=3720|sample_fmt=fltp|nb_samples=2048|channels=2|channel_layout=unknown
frame|media_type=audio|stream_index=0|key_frame=1|pts=N/A|pts_time=N/A|pkt_dts=N/A|pkt_dts_time=N/A|best_effort_timestamp=N/A|best_effort_timestamp_time=N/A|pkt_duration=22528|pkt_duration_time=0.510839|pkt_pos=40976|pkt_size=3348|sample_fmt=fltp|nb_samples=2048|channels=2|channel_layout=unknown
frame|media_type=audio|stream_index=0|key_frame=1|pts=N/A|pts_time=N/A|pkt_dts=N/A|pkt_dts_time=N/A|best_effort_timestamp=N/A|best_effort_timestamp_time=N/A|pkt_duration=22528|pkt_duration_time=0.510839|pkt_pos=40976|pkt_size=2976|sample_fmt=fltp|nb_samples=2048|channels=2|channel_layout=unknown
frame|media_type=audio|stream_index=0|key_frame=1|pts=N/A|pts_time=N/A|pkt_dts=N/A|pkt_dts_time=N/A|best_effort_timestamp=N/A|best_effort_timestamp_time=N/A|pkt_duration=22528|pkt_duration_time=0.510839|pkt_pos=40976|pkt_size=2604|sample_fmt=fltp|nb_samples=2048|channels=2|channel_layout=unknown
frame|media_type=audio|stream_index=0|key_frame=1|pts=N/A|pts_time=N/A|pkt_dts=N/A|pkt_dts_time=N/A|best_effort_timestamp=N/A|best_effort_timestamp_time=N/A|pkt_duration=22528|pkt_duration_time=0.510839|pkt_pos=40976|pkt_size=2232|sample_fmt=fltp|nb_samples=2048|channels=2|channel_layout=unknown
frame|media_type=audio|stream_index=0|key_frame=1|pts=N/A|pts_time=N/A|pkt_dts=N/A|pkt_dts_time=N/A|best_effort_timestamp=N/A|best_effort_timestamp_time=N/A|pkt_duration=22528|pkt_duration_time=0.510839|pkt_pos=40976|pkt_size=1860|sample_fmt=fltp|nb_samples=2048|channels=2|channel_layout=unknown
frame|media_type=audio|stream_index=0|key_frame=1|pts=N/A|pts_time=N/A|pkt_dts=N/A|pkt_dts_time=N/A|best_effort_timestamp=N/A|best_effort_timestamp_time=N/A|pkt_duration=22528|pkt_duration_time=0.510839|pkt_pos=40976|pkt_size=1488|sample_fmt=fltp|nb_samples=2048|channels=2|channel_layout=unknown
frame|media_type=audio|stream_index=0|key_frame=1|pts=N/A|pts_time=N/A|pkt_dts=N/A|pkt_dts_time=N/A|best_effort_timestamp=N/A|best_effort_timestamp_time=N/A|pkt_duration=22528|pkt_duration_time=0.510839|pkt_pos=40976|pkt_size=1116|sample_fmt=fltp|nb_samples=2048|channels=2|channel_layout=unknown
frame|media_type=audio|stream_index=0|key_frame=1|pts=N/A|pts_time=N/A|pkt_dts=N/A|pkt_dts_time=N/A|best_effort_timestamp=N/A|best_effort_timestamp_time=N/A|pkt_duration=22528|pkt_duration_time=0.510839|pkt_pos=40976|pkt_size=744|sample_fmt=fltp|nb_samples=2048|channels=2|channel_layout=unknown
frame|media_type=audio|stream_index=0|key_frame=1|pts=N/A|pts_time=N/A|pkt_dts=N/A|pkt_dts_time=N/A|best_effort_timestamp=N/A|best_effort_timestamp_time=N/A|pkt_duration=22528|pkt_duration_time=0.510839|pkt_pos=40976|pkt_size=372|sample_fmt=fltp|nb_samples=2048|channels=2|channel_layout=unknown
packet|codec_type=audio|stream_index=0|pts=247808|pts_time=5.619229|dts=247808|dts_time=5.619229|duration=22528|duration_time=0.510839|size=4092|pos=45068|flags=K_
frame|media_type=audio|stream_index=0|key_frame=1|pts=247808|pts_time=5.619229|pkt_dts=247808|pkt_dts_time=5.619229|best_effort_timestamp=247808|best_effort_timestamp_time=5.619229|pkt_duration=22528|pkt_duration_time=0.510839|pkt_pos=45068|pkt_size=4092|sample_fmt=fltp|nb_samples=2048|channels=2|channel_layout=unknown
frame|media_type=audio|stream_index=0|key_frame=1|pts=N/A|pts_time=N/A|pkt_dts=N/A|pkt_dts_time=N/A|best_effort_timestamp=N/A|best_effort_timestamp_time=N/A|pkt_duration=22528|pkt_duration_time=0.510839|pkt_pos=45068|pkt_size=3720|sample_fmt=fltp|nb_samples=2048|channels=2|channel_layout=unknown
frame|media_type=audio|stream_index=0|key_frame=1|pts=N/A|pts_time=N/A|pkt_dts=N/A|pkt_dts_time=N/A|best_effort_timestamp=N/A|best_effort_timestamp_time=N/A|pkt_duration=22528|pkt_duration_time=0.510839|pkt_pos=45068|pkt_size=3348|sample_fmt=fltp|nb_samples=2048|channels=2|channel_layout=unknown
frame|media_type=audio|stream_index=0|key_frame=1|pts=N/A|pts_time=N/A|pkt_dts=N/A|pkt_dts_time=N/A|best_effort_timestamp=N/A|best_effort_timestamp_time=N/A|pkt_duration=22528|pkt_duration_time=0.510839|pkt_pos=45068|pkt_size=2976|sample_fmt=fltp|nb_samples=2048|channels=2|channel_layout=unknown
frame|media_type=audio|stream_index=0|key_frame=1|pts=N/A|pts_time=N/A|pkt_dts=N/A|pkt_dts_time=N/A|best_effort_timestamp=N/A|best_effort_timestamp_time=N/A|pkt_duration=22528|pkt_duration_time=0.510839|pkt_pos=45068|pkt_size=2604|sample_fmt=fltp|nb_samples=2048|channels=2|channel_layout=unknown
frame|media_type=audio|stream_index=0|key_frame=1|pts=N/A|pts_time=N/A|pkt_dts=N/A|pkt_dts_time=N/A|best_effort_timestamp=N/A|best_effort_timestamp_time=N/A|pkt_duration=22528|pkt_duration_time=0.510839|pkt_pos=45068|pkt_size=2232|sample_fmt=fltp|nb_samples=2048|channels=2|channel_layout=unknown
frame|media_type=audio|stream_index=0|key_frame=1|pts=N/A|pts_time=N/A|pkt_dts=N/A|pkt_dts_time=N/A|best_effort_timestamp=N/A|best_effort_timestamp_time=N/A|pkt_duration=22528|pkt_duration_time=0.510839|pkt_pos=45068|pkt_size=1860|sample_fmt=fltp|nb_samples=2048|channels=2|channel_layout=unknown
frame|media_type=audio|stream_index=0|key_frame=1|pts=N/A|pts_time=N/A|pkt_dts=N/A|pkt_dts_time=N/A|best_effort_timestamp=N/A|best_effort_timestamp_time=N/A|pkt_duration=22528|pkt_duration_time=0.510839|pkt_pos=45068|pkt_size=1488|sample_fmt=fltp|nb_samples=2048|channels=2|channel_layout=unknown
frame|media_type=audio|stream_index=0|key_frame=1|pts=N/A|pts_time=N/A|pkt_dts=N/A|pkt_dts_time=N/A|best_effort_timestamp=N/A|best_effort_timestamp_time=N/A|pkt_duration=22528|pkt_duration_time=0.510839|pkt_pos=45068|pkt_size=1116|sample_fmt=fltp|nb_samples=2048|channels=2|channel_layout=unknown
frame|media_type=audio|stream_index=0|key_frame=1|pts=N/A|pts_time=N/A|pkt_dts=N/A|pkt_dts_time=N/A|best_effort_timestamp=N/A|best_effort_timestamp_time=N/A|pkt_duration=22528|pkt_duration_time=0.510839|pkt_pos=45068|pkt_size=744|sample_fmt=fltp|nb_samples=2048|channels=2|channel_layout=unknown
frame|media_type=audio|stream_index=0|key_frame=1|pts=N/A|pts_time=N/A|pkt_dts=N/A|pkt_dts_time=N/A|best_effort_timestamp=N/A|best_effort_timestamp_time=N/A|pkt_duration=22528|pkt_duration_time=0.510839|pkt_pos=45068|pkt_size=372|sample_fmt=fltp|nb_samples=2048|channels=2|channel_layout=unknown
packet|codec_type=audio|stream_index=0|pts=270336|pts_time=6.130068|dts=270336|dts_time=6.130068|duration=22528|duration_time=0.510839|size=4092|pos=49160|flags=K_
frame|media_type=audio|stream_index=0|key_frame=1|pts=270336|pts_time=6.130068|pkt_dts=270336|pkt_dts_time=6.130068|best_effort_timestamp=270336|best_effort_timestamp_time=6.130068|pkt_duration=22528|pkt_duration_time=0.510839|pkt_pos=49160|pkt_size=4092|sample_fmt=fltp|nb_samples=2048|channels=2|channel_layout=unknown
frame|media_type=audio|stream_index=0|key_frame=1|pts=N/A|pts_time=N/A|pkt_dts=N/A|pkt_dts_time=N/A|best_effort_timestamp=N/A|best_effort_timestamp_time=N/A|pkt_duration=22528|pkt_duration_time=0.510839|pkt_pos=49160|pkt_size=3720|sample_fmt=fltp|nb_samples=2048|channels=2|channel_layout=unknown
frame|media_type=audio|stream_index=0|key_frame=1|pts=N/A|pts_time=N/A|pkt_dts=N/A|pkt_dts_time=N/A|best_effort_timestamp=N/A|best_effort_timestamp_time=N/A|pkt_duration=22528|pkt_duration_time=0.510839|pkt_pos=49160|pkt_size=3348|sample_fmt=fltp|nb_samples=2048|channels=2|channel_layout=unknown
frame|media_type=audio|stream_index=0|key_frame=1|pts=N/A|pts_time=N/A|pkt_dts=N/A|pkt_dts_time=N/A|best_effort_timestamp=N/A|best_effort_timestamp_time=N/A|pkt_duration=22528|pkt_duration_time=0.510839|pkt_pos=49160|pkt_size=2976|sample_fmt=fltp|nb_samples=2048|channels=2|channel_layout=unknown
frame|media_type=audio|stream_index=0|key_frame=1|pts=N/A|pts_time=N/A|pkt_dts=N/A|pkt_dts_time=N/A|best_effort_timestamp=N/A|best_effort_timestamp_time=N/A|pkt_duration=22528|pkt_duration_time=0.510839|pkt_pos=49160|pkt_size=2604|sample_fmt=fltp|nb_samples=2048|channels=2|channel_layout=unknown
frame|media_type=audio|stream_index=0|key_frame=1|pts=N/A|pts_time=N/A|pkt_dts=N/A|pkt_dts_time=N/A|best_effort_timestamp=N/A|best_effort_timestamp_time=N/A|pkt_duration=22528|pkt_duration_time=0.510839|pkt_pos=49160|pkt_size=2232|sample_fmt=fltp|nb_samples=2048|channels=2|channel_layout=unknown
frame|media_type=audio|stream_index=0|key_frame=1|pts=N/A|pts_time=N/A|pkt_dts=N/A|pkt_dts_time=N/A|best_effort_timestamp=N/A|best_effort_timestamp_time=N/A|pkt_duration=22528|pkt_duration_time=0.510839|pkt_pos=49160|pkt_size=1860|sample_fmt=fltp|nb_samples=2048|channels=2|channel_layout=unknown
frame|media_type=audio|stream_index=0|key_frame=1|pts=N/A|pts_time=N/A|pkt_dts=N/A|pkt_dts_time=N/A|best_effort_timestamp=N/A|best_effort_timestamp_time=N/A|pkt_duration=22528|pkt_duration_time=0.510839|pkt_pos=49160|pkt_size=1488|sample_fmt=fltp|nb_samples=2048|channels=2|channel_layout=unknown
frame|media_type=audio|stream_index=0|key_frame=1|pts=N/A|pts_time=N/A|pkt_dts=N/A|pkt_dts_time=N/A|best_effort_timestamp=N/A|best_effort_timestamp_time=N/A|pkt_duration=22528|pkt_duration_time=0.510839|pkt_pos=49160|pkt_size=1116|sample_fmt=fltp|nb_samples=2048|channels=2|channel_layout=unknown
frame|media_type=audio|stream_index=0|key_frame=1|pts=N/A|pts_time=N/A|pkt_dts=N/A|pkt_dts_time=N/A|best_effort_timestamp=N/A|best_effort_timestamp_time=N/A|pkt_duration=22528|pkt_duration_time=0.510839|pkt_pos=49160|pkt_size=744|sample_fmt=fltp|nb_samples=2048|channels=2|channel_layout=unknown
frame|media_type=audio|stream_index=0|key_frame=1|pts=N/A|pts_time=N/A|pkt_dts=N/A|pkt_dts_time=N/A|best_effort_timestamp=N/A|best_effort_timestamp_time=N/A|pkt_duration=22528|pkt_duration_time=0.510839|pkt_pos=49160|pkt_size=372|sample_fmt=fltp|nb_samples=2048|channels=2|channel_layout=unknown
packet|codec_type=audio|stream_index=0|pts=292864|pts_time=6.640907|dts=292864|dts_time=6.640907|duration=22528|duration_time=0.510839|size=4092|pos=53252|flags=K_
frame|media_type=audio|stream_index=0|key_frame=1|pts=292864|pts_time=6.640907|pkt_dts=292864|pkt_dts_time=6.640907|best_effort_timestamp=292864|best_effort_timestamp_time=6.640907|pkt_duration=22528|pkt_duration_time=0.510839|pkt_pos=53252|pkt_size=4092|sample_fmt=fltp|nb_samples=2048|channels=2|channel_layout=unknown
frame|media_type=audio|stream_index=0|key_frame=1|pts=N/A|pts_time=N/A|pkt_dts=N/A|pkt_dts_time=N/A|best_effort_timestamp=N/A|best_effort_timestamp_time=N/A|pkt_duration=22528|pkt_duration_time=0.510839|pkt_pos=53252|pkt_size=3720|sample_fmt=fltp|nb_samples=2048|channels=2|channel_layout=unknown
frame|media_type=audio|stream_index=0|key_frame=1|pts=N/A|pts_time=N/A|pkt_dts=N/A|pkt_dts_time=N/A|best_effort_timestamp=N/A|best_effort_timestamp_time=N/A|pkt_duration=22528|pkt_duration_time=0.510839|pkt_pos=53252|pkt_size=3348|sample_fmt=fltp|nb_samples=2048|channels=2|channel_layout=unknown
frame|media_type=audio|stream_index=0|key_frame=1|pts=N/A|pts_time=N/A|pkt_dts=N/A|pkt_dts_time=N/A|best_effort_timestamp=N/A|best_effort_timestamp_time=N/A|pkt_duration=22528|pkt_duration_time=0.510839|pkt_pos=53252|pkt_size=2976|sample_fmt=fltp|nb_samples=2048|channels=2|channel_layout=unknown
frame|media_type=audio|stream_index=0|key_frame=1|pts=N/A|pts_time=N/A|pkt_dts=N/A|pkt_dts_time=N/A|best_effort_timestamp=N/A|best_effort_timestamp_time=N/A|pkt_duration=22528|pkt_duration_time=0.510839|pkt_pos=53252|pkt_size=2604|sample_fmt=fltp|nb_samples=2048|channels=2|channel_layout=unknown
frame|media_type=audio|stream_index=0|key_frame=1|pts=N/A|pts_time=N/A|pkt_dts=N/A|pkt_dts_time=N/A|best_effort_timestamp=N/A|best_effort_timestamp_time=N/A|pkt_duration=22528|pkt_duration_time=0.510839|pkt_pos=53252|pkt_size=2232|sample_fmt=fltp|nb_samples=2048|channels=2|channel_layout=unknown
frame|media_type=audio|stream_index=0|key_frame=1|pts=N/A|pts_time=N/A|pkt_dts=N/A|pkt_dts_time=N/A|best_effort_timestamp=N/A|best_effort_timestamp_time=N/A|pkt_duration=22528|pkt_duration_time=0.510839|pkt_pos=53252|pkt_size=1860|sample_fmt=fltp|nb_samples=2048|channels=2|channel_layout=unknown
frame|media_type=audio|stream_index=0|key_frame=1|pts=N/A|pts_time=N/A|pkt_dts=N/A|pkt_dts_time=N/A|best_effort_timestamp=N/A|best_effort_timestamp_time=N/A|pkt_duration=22528|pkt_duration_time=0.510839|pkt_pos=53252|pkt_size=1488|sample_fmt=fltp|nb_samples=2048|channels=2|channel_layout=unknown
frame|media_type=audio|stream_index=0|key_frame=1|pts=N/A|pts_time=N/A|pkt_dts=N/A|pkt_dts_time=N/A|best_effort_timestamp=N/A|best_effort_timestamp_time=N/A|pkt_duration=22528|pkt_duration_time=0.510839|pkt_pos=53252|pkt_size=1116|sample_fmt=fltp|nb_samples=2048|channels=2|channel_layout=unknown
frame|media_type=audio|stream_index=0|key_frame=1|pts=N/A|pts_time=N/A|pkt_dts=N/A|pkt_dts_time=N/A|best_effort_timestamp=N/A|best_effort_timestamp_time=N/A|pkt_duration=22528|pkt_duration_time=0.510839|pkt_pos=53252|pkt_size=744|sample_fmt=fltp|nb_samples=2048|channels=2|channel_layout=unknown
frame|media_type=audio|stream_index=0|key_frame=1|pts=N/A|pts_time=N/A|pkt_dts=N/A|pkt_dts_time=N/A|best_effort_timestamp=N/A|best_effort_timestamp_time=N/A|pkt_duration=22528|pkt_duration_time=0.510839|pkt_pos=53252|pkt_size=372|sample_fmt=fltp|nb_samples=2048|channels=2|channel_layout=unknown
packet|codec_type=audio|stream_index=0|pts=315392|pts_time=7.151746|dts=315392|dts_time=7.151746|duration=22528|duration_time=0.510839|size=4092|pos=57344|flags=K_
frame|media_type=audio|stream_index=0|key_frame=1|pts=315392|pts_time=7.151746|pkt_dts=315392|pkt_dts_time=7.151746|best_effort_timestamp=315392|best_effort_timestamp_time=7.151746|pkt_duration=22528|pkt_duration_time=0.510839|pkt_pos=57344|pkt_size=4092|sample_fmt=fltp|nb_samples=2048|channels=2|channel_layout=unknown
frame|media_type=audio|stream_index=0|key_frame=1|pts=N/A|pts_time=N/A|pkt_dts=N/A|pkt_dts_time=N/A|best_effort_timestamp=N/A|best_effort_timestamp_time=N/A|pkt_duration=22528|pkt_duration_time=0.510839|pkt_pos=57344|pkt_size=3720|sample_fmt=fltp|nb_samples=2048|channels=2|channel_layout=unknown
frame|media_type=audio|stream_index=0|key_frame=1|pts=N/A|pts_time=N/A|pkt_dts=N/A|pkt_dts_time=N/A|best_effort_timestamp=N/A|best_effort_timestamp_time=N/A|pkt_duration=22528|pkt_duration_time=0.510839|pkt_pos=57344|pkt_size=3348|sample_fmt=fltp|nb_samples=2048|channels=2|channel_layout=unknown
frame|media_type=audio|stream_index=0|key_frame=1|pts=N/A|pts_time=N/A|pkt_dts=N/A|pkt_dts_time=N/A|best_effort_timestamp=N/A|best_effort_timestamp_time=N/A|pkt_duration=22528|pkt_duration_time=0.510839|pkt_pos=57344|pkt_size=2976|sample_fmt=fltp|nb_samples=2048|channels=2|channel_layout=unknown
frame|media_type=audio|stream_index=0|key_frame=1|pts=N/A|pts_time=N/A|pkt_dts=N/A|pkt_dts_time=N/A|best_effort_timestamp=N/A|best_effort_timestamp_time=N/A|pkt_duration=22528|pkt_duration_time=0.510839|pkt_pos=57344|pkt_size=2604|sample_fmt=fltp|nb_samples=2048|channels=2|channel_layout=unknown
frame|media_type=audio|stream_index=0|key_frame=1|pts=N/A|pts_time=N/A|pkt_dts=N/A|pkt_dts_time=N/A|best_effort_timestamp=N/A|best_effort_timestamp_time=N/A|pkt_duration=22528|pkt_duration_time=0.510839|pkt_pos=57344|pkt_size=2232|sample_fmt=fltp|nb_samples=2048|channels=2|channel_layout=unknown
frame|media_type=audio|stream_index=0|key_frame=1|pts=N/A|pts_time=N/A|pkt_dts=N/A|pkt_dts_time=N/A|best_effort_timestamp=N/A|best_effort_timestamp_time=N/A|pkt_duration=22528|pkt_duration_time=0.510839|pkt_pos=57344|pkt_size=1860|sample_fmt=fltp|nb_samples=2048|channels=2|channel_layout=unknown
frame|media_type=audio|stream_index=0|key_frame=1|pts=N/A|pts_time=N/A|pkt_dts=N/A|pkt_dts_time=N/A|best_effort_timestamp=N/A|best_effort_timestamp_time=N/A|pkt_duration=22528|pkt_duration_time=0.510839|pkt_pos=57344|pkt_size=1488|sample_fmt=fltp|nb_samples=2048|channels=2|channel_layout=unknown
frame|media_type=audio|stream_index=0|key_frame=1|pts=N/A|pts_time=N/A|pkt_dts=N/A|pkt_dts_time=N/A|best_effort_timestamp=N/A|best_effort_timestamp_time=N/A|pkt_duration=22528|pkt_duration_time=0.510839|pkt_pos=57344|pkt_size=1116|sample_fmt=fltp|nb_samples=2048|channels=2|channel_layout=unknown
frame|media_type=audio|stream_index=0|key_frame=1|pts=N/A|pts_time=N/A|pkt_dts=N/A|pkt_dts_time=N/A|best_effort_timestamp=N/A|best_effort_timestamp_time=N/A|pkt_duration=22528|pkt_duration_time=0.510839|pkt_pos=57344|pkt_size=744|sample_fmt=fltp|nb_samples=2048|channels=2|channel_layout=unknown
frame|media_type=audio|stream_index=0|key_frame=1|pts=N/A|pts_time=N/A|pkt_dts=N/A|pkt_dts_time=N/A|best_effort_timestamp=N/A|best_effort_timestamp_time=N/A|pkt_duration=22528|pkt_duration_time=0.510839|pkt_pos=57344|pkt_size=372|sample_fmt=fltp|nb_samples=2048|channels=2|channel_layout=unknown
packet|codec_type=audio|stream_index=0|pts=337920|pts_time=7.662585|dts=337920|dts_time=7.662585|duration=22528|duration_time=0.510839|size=4092|pos=61436|flags=K_
frame|media_type=audio|stream_index=0|key_frame=1|pts=337920|pts_time=7.662585|pkt_dts=337920|pkt_dts_time=7.662585|best_effort_timestamp=337920|best_effort_timestamp_time=7.662585|pkt_duration=22528|pkt_duration_time=0.510839|pkt_pos=61436|pkt_size=4092|sample_fmt=fltp|nb_samples=2048|channels=2|channel_layout=unknown
frame|media_type=audio|stream_index=0|key_frame=1|pts=N/A|pts_time=N/A|pkt_dts=N/A|pkt_dts_time=N/A|best_effort_timestamp=N/A|best_effort_timestamp_time=N/A|pkt_duration=22528|pkt_duration_time=0.510839|pkt_pos=61436|pkt_size=3720|sample_fmt=fltp|nb_samples=2048|channels=2|channel_layout=unknown
frame|media_type=audio|stream_index=0|key_frame=1|pts=N/A|pts_time=N/A|pkt_dts=N/A|pkt_dts_time=N/A|best_effort_timestamp=N/A|best_effort_timestamp_time=N/A|pkt_duration=22528|pkt_duration_time=0.510839|pkt_pos=61436|pkt_size=3348|sample_fmt=fltp|nb_samples=2048|channels=2|channel_layout=unknown
frame|media_type=audio|stream_index=0|key_frame=1|pts=N/A|pts_time=N/A|pkt_dts=N/A|pkt_dts_time=N/A|best_effort_timestamp=N/A|best_effort_timestamp_time=N/A|pkt_duration=22528|pkt_duration_time=0.510839|pkt_pos=61436|pkt_size=2976|sample_fmt=fltp|nb_samples=2048|channels=2|channel_layout=unknown
frame|media_type=audio|stream_index=0|key_frame=1|pts=N/A|pts_time=N/A|pkt_dts=N/A|pkt_dts_time=N/A|best_effort_timestamp=N/A|best_effort_timestamp_time=N/A|pkt_duration=22528|pkt_duration_time=0.510839|pkt_pos=61436|pkt_size=2604|sample_fmt=fltp|nb_samples=2048|channels=2|channel_layout=unknown
frame|media_type=audio|stream_index=0|key_frame=1|pts=N/A|pts_time=N/A|pkt_dts=N/A|pkt_dts_time=N/A|best_effort_timestamp=N/A|best_effort_timestamp_time=N/A|pkt_duration=22528|pkt_duration_time=0.510839|pkt_pos=61436|pkt_size=2232|sample_fmt=fltp|nb_samples=2048|channels=2|channel_layout=unknown
frame|media_type=audio|stream_index=0|key_frame=1|pts=N/A|pts_time=N/A|pkt_dts=N/A|pkt_dts_time=N/A|best_effort_timestamp=N/A|best_effort_timestamp_time=N/A|pkt_duration=22528|pkt_duration_time=0.510839|pkt_pos=61436|pkt_size=1860|sample_fmt=fltp|nb_samples=2048|channels=2|channel_layout=unknown
frame|media_type=audio|stream_index=0|key_frame=1|pts=N/A|pts_time=N/A|pkt_dts=N/A|pkt_dts_time=N/A|best_effort_timestamp=N/A|best_effort_timestamp_time=N/A|pkt_duration=22528|pkt_duration_time=0.510839|pkt_pos=61436|pkt_size=1488|sample_fmt=fltp|nb_samples=2048|channels=2|channel_layout=unknown
frame|media_type=audio|stream_index=0|key_frame=1|pts=N/A|pts_time=N/A|pkt_dts=N/A|pkt_dts_time=N/A|best_effort_timestamp=N/A|best_effort_timestamp_time=N/A|pkt_duration=22528|pkt_duration_time=0.510839|pkt_pos=61436|pkt_size=1116|sample_fmt=fltp|nb_samples=2048|channels=2|channel_layout=unknown
frame|media_type=audio|stream_index=0|key_frame=1|pts=N/A|pts_time=N/A|pkt_dts=N/A|pkt_dts_time=N/A|best_effort_timestamp=N/A|best_effort_timestamp_time=N/A|pkt_duration=22528|pkt_duration_time=0.510839|pkt_pos=61436|pkt_size=744|sample_fmt=fltp|nb_samples=2048|channels=2|channel_layout=unknown
frame|media_type=audio|stream_index=0|key_frame=1|pts=N/A|pts_time=N/A|pkt_dts=N/A|pkt_dts_time=N/A|best_effort_timestamp=N/A|best_effort_timestamp_time=N/A|pkt_duration=22528|pkt_duration_time=0.510839|pkt_pos=61436|pkt_size=372|sample_fmt=fltp|nb_samples=2048|channels=2|channel_layout=unknown
packet|codec_type=audio|stream_index=0|pts=360448|pts_time=8.173424|dts=360448|dts_time=8.173424|duration=44|duration_time=0.000998|size=8|pos=65528|flags=K_
frame|media_type=audio|stream_index=0|key_frame=1|pts=N/A|pts_time=N/A|pkt_dts=N/A|pkt_dts_time=N/A|best_effort_timestamp=N/A|best_effort_timestamp_time=N/A|pkt_duration=N/A|pkt_duration_time=N/A|pkt_pos=N/A|pkt_size=0|sample_fmt=fltp|nb_samples=2048|channels=2|channel_layout=unknown
